<svg xmlns="http://www.w3.org/2000/svg" width="1600" height="900" viewBox="0 0 1600 900" role="img" aria-labelledby="title desc">
  <title id="title">VC Investment Research Package Preview</title>
  <desc id="desc">A preview card for an AI Infrastructure investment research package with report pages, ranking table, and IC verdict labels.</desc>
  <defs>
    <linearGradient id="bg" x1="0" y1="0" x2="1" y2="1">
      <stop offset="0" stop-color="#f8fafc"/>
      <stop offset="0.55" stop-color="#eef6f5"/>
      <stop offset="1" stop-color="#fff7ed"/>
    </linearGradient>
    <filter id="shadow" x="-20%" y="-20%" width="140%" height="140%">
      <feDropShadow dx="0" dy="18" stdDeviation="24" flood-color="#0f172a" flood-opacity="0.16"/>
    </filter>
  </defs>

  <rect width="1600" height="900" fill="url(#bg)"/>
  <path d="M96 730 C275 662, 374 742, 525 685 C683 626, 780 534, 958 577 C1147 623, 1275 755, 1504 664" fill="none" stroke="#14b8a6" stroke-width="6" stroke-linecap="round" opacity="0.28"/>
  <path d="M126 188 H1474" stroke="#0f172a" stroke-width="2" opacity="0.08"/>
  <path d="M126 716 H1474" stroke="#0f172a" stroke-width="2" opacity="0.08"/>

  <g filter="url(#shadow)">
    <rect x="142" y="118" width="676" height="664" rx="18" fill="#ffffff"/>
    <rect x="142" y="118" width="676" height="90" rx="18" fill="#0f172a"/>
    <path d="M142 190 H818" stroke="#0f172a" stroke-width="36"/>
    <text x="190" y="176" font-family="Inter, ui-sans-serif, -apple-system, BlinkMacSystemFont, Segoe UI, sans-serif" font-size="34" font-weight="700" fill="#ffffff">AI Infra Investment Report</text>
    <text x="190" y="260" font-family="Inter, ui-sans-serif, -apple-system, BlinkMacSystemFont, Segoe UI, sans-serif" font-size="22" fill="#475569">Evidence cut-off: 2026-05-10</text>
    <text x="190" y="300" font-family="Inter, ui-sans-serif, -apple-system, BlinkMacSystemFont, Segoe UI, sans-serif" font-size="22" fill="#475569">Generated by OpenOPC</text>

    <rect x="190" y="354" width="580" height="270" rx="12" fill="#f8fafc" stroke="#cbd5e1"/>
    <text x="224" y="408" font-family="Inter, ui-sans-serif, -apple-system, BlinkMacSystemFont, Segoe UI, sans-serif" font-size="24" font-weight="700" fill="#0f172a">Final Top 3</text>
    <line x1="224" y1="436" x2="736" y2="436" stroke="#94a3b8" stroke-width="2"/>

    <text x="224" y="486" font-family="Inter, ui-sans-serif, -apple-system, BlinkMacSystemFont, Segoe UI, sans-serif" font-size="26" font-weight="700" fill="#0f172a">1</text>
    <text x="276" y="486" font-family="Inter, ui-sans-serif, -apple-system, BlinkMacSystemFont, Segoe UI, sans-serif" font-size="26" fill="#0f172a">Baseten</text>
    <rect x="604" y="456" width="132" height="42" rx="21" fill="#ccfbf1"/>
    <text x="630" y="485" font-family="Inter, ui-sans-serif, -apple-system, BlinkMacSystemFont, Segoe UI, sans-serif" font-size="18" font-weight="700" fill="#0f766e">Recommend</text>

    <text x="224" y="548" font-family="Inter, ui-sans-serif, -apple-system, BlinkMacSystemFont, Segoe UI, sans-serif" font-size="26" font-weight="700" fill="#0f172a">2</text>
    <text x="276" y="548" font-family="Inter, ui-sans-serif, -apple-system, BlinkMacSystemFont, Segoe UI, sans-serif" font-size="26" fill="#0f172a">Galileo</text>
    <rect x="604" y="518" width="132" height="42" rx="21" fill="#ccfbf1"/>
    <text x="630" y="547" font-family="Inter, ui-sans-serif, -apple-system, BlinkMacSystemFont, Segoe UI, sans-serif" font-size="18" font-weight="700" fill="#0f766e">Recommend</text>

    <text x="224" y="610" font-family="Inter, ui-sans-serif, -apple-system, BlinkMacSystemFont, Segoe UI, sans-serif" font-size="26" font-weight="700" fill="#0f172a">3</text>
    <text x="276" y="610" font-family="Inter, ui-sans-serif, -apple-system, BlinkMacSystemFont, Segoe UI, sans-serif" font-size="26" fill="#0f172a">Together AI</text>
    <rect x="628" y="580" width="108" height="42" rx="21" fill="#fed7aa"/>
    <text x="657" y="609" font-family="Inter, ui-sans-serif, -apple-system, BlinkMacSystemFont, Segoe UI, sans-serif" font-size="18" font-weight="700" fill="#c2410c">Watch</text>

    <rect x="190" y="676" width="220" height="28" rx="14" fill="#e2e8f0"/>
    <rect x="190" y="724" width="460" height="18" rx="9" fill="#e2e8f0"/>
  </g>

  <g filter="url(#shadow)">
    <rect x="902" y="176" width="456" height="590" rx="18" fill="#ffffff"/>
    <rect x="950" y="238" width="360" height="44" rx="22" fill="#0f172a"/>
    <text x="986" y="268" font-family="Inter, ui-sans-serif, -apple-system, BlinkMacSystemFont, Segoe UI, sans-serif" font-size="20" font-weight="700" fill="#ffffff">IC Decision Package</text>
    <rect x="950" y="340" width="360" height="26" rx="13" fill="#cbd5e1"/>
    <rect x="950" y="398" width="288" height="22" rx="11" fill="#e2e8f0"/>
    <rect x="950" y="450" width="330" height="22" rx="11" fill="#e2e8f0"/>
    <rect x="950" y="502" width="252" height="22" rx="11" fill="#e2e8f0"/>
    <rect x="950" y="594" width="156" height="50" rx="25" fill="#14b8a6"/>
    <text x="989" y="627" font-family="Inter, ui-sans-serif, -apple-system, BlinkMacSystemFont, Segoe UI, sans-serif" font-size="20" font-weight="700" fill="#ffffff">PDF</text>
    <rect x="1130" y="594" width="156" height="50" rx="25" fill="#f97316"/>
    <text x="1165" y="627" font-family="Inter, ui-sans-serif, -apple-system, BlinkMacSystemFont, Segoe UI, sans-serif" font-size="20" font-weight="700" fill="#ffffff">Deck</text>
  </g>

  <text x="142" y="844" font-family="Inter, ui-sans-serif, -apple-system, BlinkMacSystemFont, Segoe UI, sans-serif" font-size="28" font-weight="700" fill="#0f172a">VC Investment Research</text>
  <text x="902" y="844" font-family="Inter, ui-sans-serif, -apple-system, BlinkMacSystemFont, Segoe UI, sans-serif" font-size="22" fill="#475569">Report, deck, IC package, and diligence gates</text>
</svg>
